<?xml version="1.0" encoding="utf-8"?>
<!-- Generator: Adobe Illustrator 26.1.0, SVG Export Plug-In . SVG Version: 6.00 Build 0)  -->
<svg version="1.1" id="Layer_1" xmlns="http://www.w3.org/2000/svg" xmlns:xlink="http://www.w3.org/1999/xlink" x="0px" y="0px"
	 viewBox="0 0 48 48" style="enable-background:new 0 0 48 48;" xml:space="preserve">
<style type="text/css">
	.st0{fill:#FFFFFF;}
</style>
<path class="st0" d="M24,22c-3.2,0-5.7-1-7.8-3s-3-4.6-3-7.8c0-3.2,1-5.7,3-7.7s4.6-3,7.8-3s5.7,1,7.8,3s3,4.6,3,7.7
	c0,3.2-1,5.8-3,7.8S27.2,22,24,22z M0.3,47.6v-6.8c0-1.8,0.5-3.3,1.4-4.6c0.9-1.3,2.1-2.3,3.5-3.1c3.3-1.5,6.5-2.6,9.6-3.3
	s6.2-1.1,9.2-1.1s6.1,0.4,9.2,1.1c3.1,0.8,6.3,1.9,9.5,3.3c1.5,0.8,2.7,1.8,3.6,3.1c0.9,1.3,1.4,2.8,1.4,4.6v6.8H0.3z"/>
</svg>
